<svg width="100" height="77" fill="none" xmlns="http://www.w3.org/2000/svg"><path fill-rule="evenodd" clip-rule="evenodd" d="M38.462 75.683a37.222 37.222 0 0 1-.993-74.43.972.972 0 0 1 .992.98v13.154c0 .548-.444.99-.992 1.014a22.083 22.083 0 0 0 .993 44.145h13.235c.814 0 1.289-.932.841-1.612a37.22 37.22 0 0 1 0-40.945c.448-.68-.027-1.612-.841-1.612h-4.303a.993.993 0 0 1-.992-.992V2.233a.993.993 0 0 1 .992-.992h45.69a5.676 5.676 0 0 1 5.675 5.676 9.46 9.46 0 0 1-9.46 9.46h-7.882a22.195 22.195 0 0 0-18.19 13.33c-.27.631.208 1.31.894 1.31h11.934a7.568 7.568 0 1 1 0 15.137H64.229c-.69 0-1.169.688-.888 1.32a22.194 22.194 0 0 0 18.076 13.072h7.882a9.46 9.46 0 0 1 9.46 9.46 5.676 5.676 0 0 1-5.676 5.677H38.462Z" fill="#C24B4B"/></svg>