<svg width="300" height="231" xmlns="http://www.w3.org/2000/svg">
    <path fill-rule="evenodd" clip-rule="evenodd"
          d="M115.385 227.047A111.661 111.661 0 0 1 3.722 115.385 111.663 111.663 0 0 1 112.407 3.762c1.644-.044 2.978 1.293 2.978 2.938v39.46c0 1.644-1.334 2.97-2.977 3.045a66.247 66.247 0 0 0 2.974 132.427c.001 0 .003.001.003.003l.002.003h39.703c2.443 0 3.867-2.795 2.524-4.835a111.658 111.658 0 0 1 0-122.836c1.343-2.04-.081-4.835-2.524-4.835h-12.906a2.977 2.977 0 0 1-2.978-2.978V6.7a2.98 2.98 0 0 1 2.978-2.978h137.065c9.405 0 17.029 7.624 17.029 17.029 0 15.674-12.707 28.38-28.381 28.38H244.25a66.583 66.583 0 0 0-54.567 39.992c-.811 1.891.623 3.93 2.681 3.93h35.8c12.539 0 22.704 10.164 22.704 22.704 0 12.54-10.165 22.705-22.704 22.705h-35.476c-2.073 0-3.508 2.065-2.666 3.959a66.577 66.577 0 0 0 54.228 39.217h23.647c15.674 0 28.381 12.706 28.381 28.381 0 9.405-7.624 17.028-17.029 17.028H115.385Z"
    />
</svg>