<svg width="200" height="154" xmlns="http://www.w3.org/2000/svg">
    <path fill-rule="evenodd" clip-rule="evenodd"
          d="M76.923 151.365A74.444 74.444 0 0 1 23.587 24.991 74.442 74.442 0 0 1 74.939 2.508c1.096-.03 1.985.862 1.985 1.958v26.307c0 1.096-.89 1.98-1.984 2.03a44.165 44.165 0 0 0 1.984 88.287l.002.002h26.469c1.628 0 2.578-1.864 1.682-3.223a74.443 74.443 0 0 1 0-81.891c.896-1.36-.054-3.224-1.682-3.224H94.79a1.985 1.985 0 0 1-1.985-1.985V4.467a1.985 1.985 0 0 1 1.985-1.986h91.377c6.27 0 11.353 5.083 11.353 11.353 0 10.45-8.471 18.92-18.921 18.92h-15.765a44.392 44.392 0 0 0-36.377 26.661c-.541 1.261.414 2.62 1.787 2.62h23.866c8.36 0 15.137 6.776 15.137 15.136s-6.777 15.137-15.137 15.137h-23.65c-1.383 0-2.339 1.376-1.778 2.64a44.392 44.392 0 0 0 36.152 26.144h15.765c10.45 0 18.921 8.471 18.921 18.92 0 6.27-5.083 11.353-11.353 11.353H76.923Z"
    />
</svg>