<svg width="50" height="39" fill="none" xmlns="http://www.w3.org/2000/svg"><path fill-rule="evenodd" clip-rule="evenodd" d="M19.23 37.841A18.61 18.61 0 0 1 18.736.627a.486.486 0 0 1 .496.49v6.576a.514.514 0 0 1-.496.508 11.041 11.041 0 0 0 .496 22.072h6.617c.408 0 .645-.466.421-.806a18.61 18.61 0 0 1 0-20.473c.224-.34-.013-.805-.42-.805h-2.152a.496.496 0 0 1-.496-.497V1.117a.497.497 0 0 1 .496-.497h22.845a2.838 2.838 0 0 1 2.838 2.838 4.73 4.73 0 0 1-4.73 4.73h-3.942a11.097 11.097 0 0 0-9.094 6.666.473.473 0 0 0 .447.655h5.966a3.784 3.784 0 0 1 0 7.568h-5.912a.473.473 0 0 0-.445.66 11.098 11.098 0 0 0 9.038 6.536h3.942a4.73 4.73 0 0 1 4.73 4.73 2.838 2.838 0 0 1-2.839 2.838h-27.31Z" fill="#C24B4B"/></svg>